<?xml version="1.0" encoding="UTF-8"?>
<svg version="1.1" xmlns="http://www.w3.org/2000/svg" width="500" height="500">
<path d="M0 0 C165 0 330 0 500 0 C500 165 500 330 500 500 C335 500 170 500 0 500 C0 335 0 170 0 0 Z " fill="#231F20" transform="translate(0,0)"/>
<path d="M0 0 C2.375 0.25 2.375 0.25 5 1 C7.35365228 4.35894106 7.23667218 7.42773207 7.1875 11.4375 C7.18758057 12.0763916 7.18766113 12.7152832 7.18774414 13.37353516 C7.15686609 17.39718322 6.8851558 21.33926717 6.453125 25.33984375 C5.12264284 34.89903849 5.12264284 34.89903849 7.62109375 43.84765625 C9.85467901 45.98458587 9.85467901 45.98458587 12.38671875 47.859375 C21.61109508 55.41536637 29.2428148 71.37990431 31 83 C31.67478769 89.88062197 31.23259721 94.43079315 27 100 C19.95976132 105.54231555 12.82629166 106.68777757 4.1875 107.9375 C2.42756714 108.19527222 2.42756714 108.19527222 0.63208008 108.45825195 C-18.48335101 111.1575347 -37.74600952 112.68566465 -57 114 C-70.25477352 151.20393725 -73.49078208 193.80005026 -75 233 C-76.65614657 233.38218767 -78.32457024 233.71395102 -80 234 C-82.13440756 231.86559244 -81.30811988 227.06883189 -81.39453125 224.10546875 C-81.46043155 222.19862017 -81.52720127 220.29180149 -81.59472656 218.38500977 C-81.64699402 216.86969162 -81.64699402 216.86969162 -81.70031738 215.32376099 C-82.82347463 183.92393852 -85.89392144 153.45246739 -92.51269531 122.72851562 C-93 120 -93 120 -93 116 C-96.63 116 -100.26 116 -104 116 C-104.33 115.01 -104.66 114.02 -105 113 C-101.7 113 -98.4 113 -95 113 C-96.98 103.1 -96.98 103.1 -99 93 C-100.98 93 -102.96 93 -105 93 C-107.375 90.5 -107.375 90.5 -109 88 C-109.515625 88.515625 -110.03125 89.03125 -110.5625 89.5625 C-113 91 -113 91 -116.625 90.875 C-120 90 -120 90 -122 87 C-122 86.01 -122 85.02 -122 84 C-122.66 84 -123.32 84 -124 84 C-124.20625 84.556875 -124.4125 85.11375 -124.625 85.6875 C-126.82516669 89.38778034 -130.1366872 92.0683436 -134 94 C-137.5180294 94.49252412 -139.99501662 94.63572812 -143.0625 92.6953125 C-144.43397542 91.60956112 -145.80120633 90.51842594 -147.1640625 89.421875 C-149.59438634 87.53966675 -150.89148364 86.76686127 -154 87 C-156.15604211 88.12915249 -158.13584556 89.38255391 -160.1328125 90.7734375 C-163.20237614 92.78984541 -165.91337097 93.17826742 -169.5 93.25 C-170.2734375 93.27578125 -171.046875 93.3015625 -171.84375 93.328125 C-174 93 -174 93 -175.76953125 91.74609375 C-177.93855851 88.66814078 -177.18019229 85.66390989 -177 82 C-183.07065898 84.07375564 -187.26607573 85.54272606 -191 91 C-194.53949557 93.45547372 -197.50482188 93.07625956 -201.6875 92.6875 C-203.42580078 92.53861328 -203.42580078 92.53861328 -205.19921875 92.38671875 C-208 92 -208 92 -209 91 C-210.56771011 81.05154225 -210.15291791 70.75391953 -210.13037109 60.71191406 C-210.12505043 57.90163681 -210.13032282 55.09152216 -210.13671875 52.28125 C-210.14057194 43.50913682 -210.03099813 34.75728446 -209.5703125 25.99609375 C-209.53366486 25.27062347 -209.49701721 24.5451532 -209.45925903 23.79769897 C-209.02859877 16.56956139 -207.96396184 10.70708253 -203.6875 4.8125 C-201 3 -201 3 -197.875 2.9375 C-194.42426363 4.21277214 -193.71020673 4.7635332 -192 8 C-191.54519085 11.25426477 -191.57451409 14.46899931 -191.625 17.75 C-191.6391394 19.1580188 -191.6391394 19.1580188 -191.65356445 20.59448242 C-191.92649002 33.37849017 -194.80883385 45.19610956 -198.81640625 57.28125 C-200.05253847 61.16507136 -201.04899426 65.03820649 -202 69 C-201.01 68.505 -201.01 68.505 -200 68 C-195.25119011 67.8693844 -191.87622546 68.3610856 -188 71.1875 C-185.82242734 74.24971156 -185.25917923 76.28509765 -185 80 C-179.51490865 78.42258811 -175.30279456 76.91163142 -171 73 C-168.59454362 71.79727181 -167.05003047 71.89928528 -164.375 71.9375 C-163.55773437 71.94652344 -162.74046875 71.95554687 -161.8984375 71.96484375 C-161.27195313 71.97644531 -160.64546875 71.98804688 -160 72 C-160.40992188 71.0821875 -160.81984375 70.164375 -161.2421875 69.21875 C-161.78678907 67.97931194 -162.33104111 66.73972025 -162.875 65.5 C-163.40867188 64.2934375 -163.94234375 63.086875 -164.4921875 61.84375 C-169.38328442 49.87262991 -170.51749899 33.84260838 -166.3125 21.5 C-163.05414178 14.392919 -158.26770746 9.14351857 -151 6 C-145.74054727 4.95403004 -141.43531626 6.04312249 -137 9 C-130.32841467 15.35389079 -127.85953166 23.31496119 -127.62695312 32.38452148 C-127.62110129 39.0973035 -127.85789108 45.59622177 -130 52 C-130.30679688 52.9796875 -130.61359375 53.959375 -130.9296875 54.96875 C-134.1280625 64.23300862 -139.01311911 73.01311911 -146 80 C-145.90849201 83.47730343 -145.21809552 84.76944187 -142.8125 87.3125 C-139.43055069 89.34166959 -137.88150266 89.63371472 -134 89 C-129.7093356 86.68304122 -126.59919827 84.13946391 -124 80 C-123.19777849 76.310252 -123.19777849 76.310252 -123 73 C-121.35 72.67 -119.7 72.34 -118 72 C-117.505 78.435 -117.505 78.435 -117 85 C-115.02 85.495 -115.02 85.495 -113 86 C-111.02 80.39 -109.04 74.78 -107 69 C-105.35 69.33 -103.7 69.66 -102 70 C-100.19921875 72.8359375 -100.19921875 72.8359375 -98.6875 76.375 C-98.17574219 77.53773438 -97.66398437 78.70046875 -97.13671875 79.8984375 C-96 83 -96 83 -96 86 C-92.49881984 83.18122691 -91.11030561 81.77279254 -90.46411133 77.24560547 C-90.47815805 75.78567118 -90.51903672 74.32582972 -90.58203125 72.8671875 C-90.60111794 71.68878296 -90.60111794 71.68878296 -90.62059021 70.48657227 C-90.64932566 68.8127558 -90.68880772 67.13909478 -90.73815918 65.46575928 C-90.86215367 61.14458172 -90.89825673 56.82261516 -90.94140625 52.5 C-90.95154755 51.66072968 -90.96168884 50.82145935 -90.97213745 49.95675659 C-91.27638098 19.33071376 -91.27638098 19.33071376 -83.0234375 9.69140625 C-81 8 -81 8 -78.5 7.875 C-74.85999982 9.51300008 -73.87716143 11.49596532 -72 15 C-71.42426763 18.05766492 -71.4300802 21.02098464 -71.5 24.125 C-71.51281006 24.99954834 -71.52562012 25.87409668 -71.53881836 26.77514648 C-71.96677874 40.96895427 -75.14992383 54.34018265 -80.71313477 67.38305664 C-83.62742697 74.49532682 -84.20001952 81.33654495 -81.5 88.625 C-81.005 89.73875 -80.51 90.8525 -80 92 C-77.75775342 92.58963678 -77.75775342 92.58963678 -75 92 C-71.57477149 88.96000501 -68.66017339 85.27734666 -67 81 C-66.85430429 78.28404977 -66.81466375 75.67613553 -66.875 72.96484375 C-66.89247499 71.34293858 -66.909719 69.72103091 -66.92675781 68.09912109 C-66.94542908 66.83294952 -66.94542908 66.83294952 -66.96447754 65.54119873 C-67.58993428 19.69693905 -67.58993428 19.69693905 -59.0234375 9.69140625 C-57 8 -57 8 -54.5 7.875 C-50.85999982 9.51300008 -49.87716143 11.49596532 -48 15 C-47.42426763 18.05766492 -47.4300802 21.02098464 -47.5 24.125 C-47.51281006 24.99954834 -47.52562012 25.87409668 -47.53881836 26.77514648 C-47.96677874 40.96895427 -51.14992383 54.34018265 -56.71313477 67.38305664 C-58.97676432 72.90739801 -59.81493687 78.0345079 -59 84 C-58.05443684 86.23022264 -58.05443684 86.23022264 -57 88 C-56.76925781 87.43716309 -56.53851563 86.87432617 -56.30078125 86.29443359 C-39.37844708 45.26780623 -39.37844708 45.26780623 -22 37 C-18.57767028 35.85922343 -15.91326783 35.90184883 -12.3125 35.9375 C-10.54326172 35.95103516 -10.54326172 35.95103516 -8.73828125 35.96484375 C-7.83464844 35.97644531 -6.93101562 35.98804688 -6 36 C-6.01047363 35.38068604 -6.02094727 34.76137207 -6.03173828 34.12329102 C-6.07376099 31.26973665 -6.09947127 28.41624774 -6.125 25.5625 C-6.14175781 24.58861328 -6.15851563 23.61472656 -6.17578125 22.61132812 C-6.23221805 14.17402678 -6.14714124 6.35204595 0 0 Z " fill="#F0F0F0" transform="translate(400,168)"/>
<path d="M0 0 C1.67542976 0.28604898 3.34385343 0.61781233 5 1 C5.01458252 1.77561279 5.02916504 2.55122559 5.04418945 3.3503418 C5.84576261 42.20256449 9.98239861 79.78932833 17 118 C20.63 118 24.26 118 28 118 C28.33 118.99 28.66 119.98 29 121 C25.37 121 21.74 121 18 121 C19.05189494 125.08632387 20.11617598 129.16876566 21.1875 133.25 C21.47947266 134.38953125 21.77144531 135.5290625 22.07226562 136.703125 C23.88231995 143.55408332 26.0708603 149.93126354 29.0402832 156.37011719 C30.03890359 159.10660633 30.18899859 161.11311993 30 164 C27.6953125 163.96484375 27.6953125 163.96484375 25 163 C23.67017076 160.45371406 22.75169868 158.26157718 21.875 155.5625 C21.62129639 154.83401855 21.36759277 154.10553711 21.10620117 153.35498047 C19.50694429 148.7111132 17.99508931 144.03437775 16.65625 139.30859375 C16.18387494 137.64684577 15.67995954 135.99394689 15.15625 134.34765625 C14.8778125 133.46980469 14.599375 132.59195313 14.3125 131.6875 C14.06113281 130.90761719 13.80976563 130.12773437 13.55078125 129.32421875 C13 127 13 127 13 122 C0.625 122.495 0.625 122.495 -12 123 C-13.75543669 127.68116451 -15.34405646 132.00535063 -16.6875 136.75 C-23.24274939 158.23526605 -32.31507172 184.27044512 -52.7890625 196.02734375 C-59.63998594 199.19042968 -68.39435465 199.39650502 -75.55078125 197.2265625 C-91.21836066 189.37885843 -99.51834958 172.39849718 -106 157 C-108.11859132 150.59524126 -108.13722553 142.65352625 -105.5 136.5 C-94.24778276 125.24778276 -77.54696856 125.31192578 -62.5625 123.875 C-60.00083171 123.62228803 -57.43941892 123.36719454 -54.87815857 123.11038208 C-53.2990665 122.95278435 -51.7197014 122.79788952 -50.14002991 122.64620972 C-46.05753487 122.24655931 -42.04353152 121.67992369 -38 121 C-36.4214031 120.86635796 -34.84023853 120.75946349 -33.2578125 120.68359375 C-32.41992188 120.64169922 -31.58203125 120.59980469 -30.71875 120.55664062 C-29.8628125 120.51732422 -29.006875 120.47800781 -28.125 120.4375 C-27.24585938 120.39431641 -26.36671875 120.35113281 -25.4609375 120.30664062 C-23.30744203 120.20130661 -21.15373936 120.10022351 -19 120 C-13.81896568 104.11302309 -11.31906358 87.7064519 -8.68457031 71.25244141 C-8.08898426 67.53319658 -7.46453981 63.8192864 -6.8359375 60.10546875 C-4.30500466 44.65784847 -3.00889209 29.18708582 -1.95043945 13.58105469 C-1.86469666 12.34076004 -1.86469666 12.34076004 -1.77722168 11.07540894 C-1.66991425 9.50728623 -1.56688126 7.93886374 -1.46862793 6.37014771 C-1.11087836 1.11087836 -1.11087836 1.11087836 0 0 Z " fill="#242021" transform="translate(159,126)"/>
<path d="M0 0 C1.9950056 1.46749915 3.62901152 2.99240151 5.296875 4.8203125 C6.99065748 6.25479285 6.99065748 6.25479285 9.44140625 5.83984375 C12.02994418 4.99017099 13.91964548 3.93096517 16.1875 2.4375 C20.96811522 -0.32516709 25.55165767 -1.18014635 31 0 C33.46799874 1.9207954 33.98553307 2.95659921 35 6 C35.495 5.34 35.99 4.68 36.5 4 C39.13060389 1.89551688 39.84625894 1.6421543 43.0625 1.5 C47 2 47 2 48.9375 3.6875 C50.06218055 6.13533414 50.63007332 8.33652788 51 11 C57.27070761 9.53683489 60.94049132 7.74702881 64.80859375 2.5234375 C66 1 66 1 68 0 C70.35664515 0.06284387 72.7116688 0.19803 75.0625 0.375 C76.33222656 0.46523438 77.60195313 0.55546875 78.91015625 0.6484375 C82 1 82 1 83 2 C83.11004268 4.07818546 83.14913506 6.16014865 83.16113281 8.24121094 C83.16858017 9.21960182 83.16858017 9.21960182 83.17617798 10.21775818 C83.19085458 12.3899744 83.19761658 14.56211719 83.203125 16.734375 C83.20887937 18.24879965 83.21463707 19.7632243 83.22039795 21.27764893 C83.23092854 24.46553893 83.23675527 27.65340362 83.24023438 30.84130859 C83.24567245 34.89257458 83.26958931 38.94349644 83.29820633 42.99465561 C83.31701146 46.13143823 83.32204806 49.26814171 83.32357025 52.40497589 C83.32656579 53.89585466 83.3344872 55.38673311 83.34775543 56.87755585 C83.53041297 79.01218632 83.53041297 79.01218632 78 88 C75 90 75 90 72 89.875 C69 89 69 89 67.1875 87.1875 C59.9675118 73.88752174 67.00383487 53.48037653 70.82568359 40.11181641 C72.44567523 34.70527042 74.18537572 29.34409968 76 24 C75.34 24.33 74.68 24.66 74 25 C69.45124187 25.45487581 66.32607362 25.71689456 62.5625 22.9375 C59.58045787 19.51906146 59.17526633 17.46929132 59 13 C54.85776486 13.5978663 54.85776486 13.5978663 51 15 C49.36501213 17.30602523 48.81717296 19.24204126 48 22 C46.68 21.67 45.36 21.34 44 21 C43.67 15.72 43.34 10.44 43 5 C36.90603783 7.90216888 36.90603783 7.90216888 33.9375 13 C31.85743117 17.05161234 30.19029942 19.07996728 26 21 C23.54296875 21.29296875 23.54296875 21.29296875 21.1875 21.1875 C20.00220703 21.14689453 20.00220703 21.14689453 18.79296875 21.10546875 C18.20128906 21.07066406 17.60960937 21.03585937 17 21 C17.32613281 21.66644531 17.65226562 22.33289063 17.98828125 23.01953125 C25.07821801 37.97323267 28.27891196 54.60386116 23.375 70.875 C20.42755747 78.10963167 16.29956354 83.15634699 9.078125 86.33984375 C5.41359344 87.50395246 2.854419 87.49734439 -1 87 C-7.37263459 83.69113204 -10.63308424 79.44473957 -13.25 72.875 C-17.9542402 57.73556029 -15.3400598 42.20204338 -8.25 28.3125 C-5.50877912 23.48541439 -2.16693324 19.39194489 1.55859375 15.2890625 C3.25981095 13.07664738 3.25981095 13.07664738 2.85546875 10.35546875 C1.6246546 6.96651473 0.09077997 5.81415346 -3 4 C-6.37033135 3.08211088 -6.37033135 3.08211088 -10 4 C-13.52646587 6.42012364 -17.06233998 9.12467996 -19 13 C-19.66 13 -20.32 13 -21 13 C-20.4043565 9.45790665 -19.05508605 7.54170292 -16.6875 4.875 C-16.09324219 4.19179688 -15.49898437 3.50859375 -14.88671875 2.8046875 C-10.32338346 -1.56024191 -5.90730279 -1.77918764 0 0 Z " fill="#F0F0F0" transform="translate(209,267)"/>
<path d="M0 0 C1.67542976 0.28604898 3.34385343 0.61781233 5 1 C5.01458252 1.77561279 5.02916504 2.55122559 5.04418945 3.3503418 C5.84576261 42.20256449 9.98239861 79.78932833 17 118 C20.63 118 24.26 118 28 118 C28.33 118.99 28.66 119.98 29 121 C25.37 121 21.74 121 18 121 C19.05189494 125.08632387 20.11617598 129.16876566 21.1875 133.25 C21.47947266 134.38953125 21.77144531 135.5290625 22.07226562 136.703125 C23.88231995 143.55408332 26.0708603 149.93126354 29.0402832 156.37011719 C30.03890359 159.10660633 30.18899859 161.11311993 30 164 C27.6953125 163.96484375 27.6953125 163.96484375 25 163 C23.67017076 160.45371406 22.75169868 158.26157718 21.875 155.5625 C21.62129639 154.83401855 21.36759277 154.10553711 21.10620117 153.35498047 C19.50694429 148.7111132 17.99508931 144.03437775 16.65625 139.30859375 C16.18387494 137.64684577 15.67995954 135.99394689 15.15625 134.34765625 C14.8778125 133.46980469 14.599375 132.59195313 14.3125 131.6875 C14.06113281 130.90761719 13.80976563 130.12773437 13.55078125 129.32421875 C13 127 13 127 13 122 C0.625 122.495 0.625 122.495 -12 123 C-13.75543669 127.68116451 -15.34405646 132.00535063 -16.6875 136.75 C-23.24274939 158.23526605 -32.31507172 184.27044512 -52.7890625 196.02734375 C-59.63998594 199.19042968 -68.39435465 199.39650502 -75.55078125 197.2265625 C-91.21836066 189.37885843 -99.51834958 172.39849718 -106 157 C-108.11859132 150.59524126 -108.13722553 142.65352625 -105.5 136.5 C-94.24778276 125.24778276 -77.54696856 125.31192578 -62.5625 123.875 C-60.00083171 123.62228803 -57.43941892 123.36719454 -54.87815857 123.11038208 C-53.2990665 122.95278435 -51.7197014 122.79788952 -50.14002991 122.64620972 C-46.05753487 122.24655931 -42.04353152 121.67992369 -38 121 C-36.4214031 120.86635796 -34.84023853 120.75946349 -33.2578125 120.68359375 C-32.41992188 120.64169922 -31.58203125 120.59980469 -30.71875 120.55664062 C-29.8628125 120.51732422 -29.006875 120.47800781 -28.125 120.4375 C-27.24585938 120.39431641 -26.36671875 120.35113281 -25.4609375 120.30664062 C-23.30744203 120.20130661 -21.15373936 120.10022351 -19 120 C-13.81896568 104.11302309 -11.31906358 87.7064519 -8.68457031 71.25244141 C-8.08898426 67.53319658 -7.46453981 63.8192864 -6.8359375 60.10546875 C-4.30500466 44.65784847 -3.00889209 29.18708582 -1.95043945 13.58105469 C-1.86469666 12.34076004 -1.86469666 12.34076004 -1.77722168 11.07540894 C-1.66991425 9.50728623 -1.56688126 7.93886374 -1.46862793 6.37014771 C-1.11087836 1.11087836 -1.11087836 1.11087836 0 0 Z M-27.71411133 123.42724609 C-28.64641068 123.52089447 -29.57871002 123.61454285 -30.53926086 123.71102905 C-32.04543221 123.86567123 -32.04543221 123.86567123 -33.58203125 124.0234375 C-34.62840256 124.12967438 -35.67477386 124.23591125 -36.75285339 124.34536743 C-38.97295211 124.57136186 -41.19294589 124.79838916 -43.4128418 125.02636719 C-46.7612383 125.36974314 -50.1100746 125.70854633 -53.45898438 126.046875 C-79.52649289 126.8574506 -79.52649289 126.8574506 -101 139 C-103.92108497 144.84216995 -101.80265356 151.53244392 -99.875 157.375 C-94.86686805 171.83913361 -86.38330024 185.96846444 -73.05859375 194.19921875 C-67.73280974 196.27091841 -61.07270434 195.84823745 -55.875 193.5625 C-45.76515385 187.59975401 -40.18621926 178.1306504 -35 168 C-34.42636719 166.91589844 -33.85273437 165.83179688 -33.26171875 164.71484375 C-23.16002767 144.56763088 -23.16002767 144.56763088 -19 123 C-21.98775674 123 -24.75708084 123.12735345 -27.71411133 123.42724609 Z " fill="#F1F0F0" transform="translate(159,126)"/>
<path d="M0 0 C3.64000018 1.63800008 4.62283857 3.62096532 6.5 7.125 C7.07573237 10.18266492 7.0699198 13.14598464 7 16.25 C6.98078491 17.56182251 6.98078491 17.56182251 6.96118164 18.90014648 C6.53322126 33.09395427 3.35007617 46.46518265 -2.21313477 59.50805664 C-5.12742697 66.62032682 -5.70001952 73.46154495 -3 80.75 C-2.505 81.86375 -2.01 82.9775 -1.5 84.125 C0.74224658 84.71463678 0.74224658 84.71463678 3.5 84.125 C5.77879558 82.00220999 7.60186269 79.58534221 9.5 77.125 C10.49 76.135 10.49 76.135 11.5 75.125 C14.27306206 76.51153103 14.71996878 78.23478644 16.0625 81 C16.49691406 81.88429688 16.93132812 82.76859375 17.37890625 83.6796875 C19.67849602 88.69551746 19.22175667 90.9695548 17.6875 96.25 C17.33042969 97.51070313 16.97335937 98.77140625 16.60546875 100.0703125 C15.5 103.125 15.5 103.125 13.5 104.125 C11.68658158 104.20971364 9.87005839 104.23221083 8.0546875 104.22265625 C6.44013672 104.21782227 6.44013672 104.21782227 4.79296875 104.21289062 C3.66503906 104.20451172 2.53710938 104.19613281 1.375 104.1875 C0.23933594 104.18298828 -0.89632813 104.17847656 -2.06640625 104.17382812 C-4.87765638 104.16201615 -7.6888023 104.14554507 -10.5 104.125 C-11.56542479 100.71528343 -12.5981021 97.29649826 -13.625 93.875 C-13.92792969 92.90691406 -14.23085938 91.93882812 -14.54296875 90.94140625 C-14.82011719 90.00683594 -15.09726562 89.07226562 -15.3828125 88.109375 C-15.64465332 87.25053711 -15.90649414 86.39169922 -16.17626953 85.50683594 C-16.56627598 82.63737671 -16.05197188 81.52485016 -14.5 79.125 C-13.943125 78.444375 -13.38625 77.76375 -12.8125 77.0625 C-11.3655406 73.82406706 -11.48447559 72.71590762 -11.90625 69.28515625 C-13.96533364 49.64082106 -15.8035631 22.39768439 -6.5 4.125 C-3.10102528 0.15505126 -3.10102528 0.15505126 0 0 Z " fill="#ECEBEB" transform="translate(321.5,175.875)"/>
<path d="M0 0 C7.86021672 6.56615665 11.82040319 21.33558402 13 31 C14.03113606 42.49740917 14.45844883 53.42212211 7 63 C3.70889498 66.13003952 1.57584206 67.56964975 -3 67.5625 C-6.59494811 67.39156636 -7.84904113 67.09956862 -10.9375 65.0625 C-15.71227413 57.97268387 -16.52979256 50.639101 -16.4375 42.25 C-16.42992676 41.28280029 -16.42235352 40.31560059 -16.41455078 39.3190918 C-16.06634504 24.13655919 -10.34059966 11.07921392 0 0 Z " fill="#252122" transform="translate(216,283)"/>
<path d="M0 0 C5.1481274 3.39557339 6.57393917 8.24816535 8 14 C8.39193985 17.28478169 8.43103446 20.50742746 8.375 23.8125 C8.3586853 25.12951904 8.3586853 25.12951904 8.34204102 26.47314453 C7.97187226 41.62352296 2.7113945 56.02735198 -8 67 C-16.85621761 59.27380422 -20.16704938 43.01241032 -21.21142578 31.71240234 C-21.86632476 20.68240125 -20.94823892 12.05376587 -14 3 C-9.69258068 -0.87298003 -5.56457914 -0.93044099 0 0 Z " fill="#242021" transform="translate(258,178)"/>
<path d="M0 0 C1.26972656 0.09023438 2.53945313 0.18046875 3.84765625 0.2734375 C6.9375 0.625 6.9375 0.625 7.9375 1.625 C8.04754268 3.70318546 8.08663506 5.78514865 8.09863281 7.86621094 C8.10359772 8.51847153 8.10856262 9.17073212 8.11367798 9.84275818 C8.12835458 12.0149744 8.13511658 14.18711719 8.140625 16.359375 C8.14637937 17.87379965 8.15213707 19.3882243 8.15789795 20.90264893 C8.16842854 24.09053893 8.17425527 27.27840362 8.17773438 30.46630859 C8.18317245 34.51757458 8.20708931 38.56849644 8.23570633 42.61965561 C8.25451146 45.75643823 8.25954806 48.89314171 8.26107025 52.02997589 C8.26406579 53.52085466 8.2719872 55.01173311 8.28525543 56.50255585 C8.46791297 78.63718632 8.46791297 78.63718632 2.9375 87.625 C-0.0625 89.625 -0.0625 89.625 -3.0625 89.5 C-6.0625 88.625 -6.0625 88.625 -7.875 86.8125 C-15.0949882 73.51252174 -8.05866513 53.10537653 -4.23681641 39.73681641 C-2.61682477 34.33027042 -0.87712428 28.96909968 0.9375 23.625 C0.2775 23.955 -0.3825 24.285 -1.0625 24.625 C-5.61125813 25.07987581 -8.73642638 25.34189456 -12.5 22.5625 C-15.48204213 19.14406146 -15.88723367 17.09429132 -16.0625 12.625 C-18.3725 12.625 -20.6825 12.625 -23.0625 12.625 C-22.7325 11.635 -22.4025 10.645 -22.0625 9.625 C-21.010625 9.3775 -19.95875 9.13 -18.875 8.875 C-14.66745245 7.8793869 -12.87196734 5.54103778 -10.32421875 2.18359375 C-7.46317845 -1.3506325 -4.20873737 -0.31683272 0 0 Z " fill="#F0F0F0" transform="translate(284.0625,267.375)"/>
<path d="M0 0 C6.91358728 4.60905819 10.0760665 10.86863366 11.8125 18.875 C12.66557829 27.49547088 12.57517603 36.61605272 9.8125 44.875 C9.50570312 45.8546875 9.19890625 46.834375 8.8828125 47.84375 C5.6844375 57.10800862 0.79938089 65.88811911 -6.1875 72.875 C-6.09599201 76.35230343 -5.40559552 77.64444187 -3 80.1875 C0.38194931 82.21666959 1.93099734 82.50871472 5.8125 81.875 C8.97916667 80.125 8.97916667 80.125 11.8125 77.875 C12.59625 77.2975 13.38 76.72 14.1875 76.125 C14.72375 75.7125 15.26 75.3 15.8125 74.875 C16.8025 75.865 16.8025 75.865 17.8125 76.875 C17.1525 76.875 16.4925 76.875 15.8125 76.875 C15.60625 77.431875 15.4 77.98875 15.1875 78.5625 C12.98733331 82.26278034 9.6758128 84.9433436 5.8125 86.875 C2.2944706 87.36752412 -0.18251662 87.51072812 -3.25 85.5703125 C-4.62147542 84.48456112 -5.98870633 83.39342594 -7.3515625 82.296875 C-9.78188634 80.41466675 -11.07898364 79.64186127 -14.1875 79.875 C-16.34354211 81.00415249 -18.32334556 82.25755391 -20.3203125 83.6484375 C-23.38987614 85.66484541 -26.10087097 86.05326742 -29.6875 86.125 C-30.4609375 86.15078125 -31.234375 86.1765625 -32.03125 86.203125 C-34.1875 85.875 -34.1875 85.875 -35.95703125 84.62109375 C-38.12605851 81.54314078 -37.36769229 78.53890989 -37.1875 74.875 C-38.6725 75.37 -38.6725 75.37 -40.1875 75.875 C-40.5175 75.215 -40.8475 74.555 -41.1875 73.875 C-37.19303225 69.69211396 -32.46983105 65.36512183 -26.59765625 64.48828125 C-24.125 64.5 -24.125 64.5 -20.1875 64.875 C-20.80238281 63.49828125 -20.80238281 63.49828125 -21.4296875 62.09375 C-21.97428907 60.85431194 -22.51854111 59.61472025 -23.0625 58.375 C-23.59617188 57.1684375 -24.12984375 55.961875 -24.6796875 54.71875 C-29.57078442 42.74762991 -30.70499899 26.71760838 -26.5 14.375 C-21.5007175 3.47064166 -12.24459124 -4.32162044 0 0 Z M-19.375 9.6875 C-26.08218484 21.48289402 -24.05979651 37.00728211 -20.609375 49.625 C-18.39154015 56.7780169 -14.80634064 63.34878981 -11.1875 69.875 C-0.73936442 59.70924646 5.52929515 46.93937552 6.015625 32.23046875 C6.03671266 30.50787071 6.05220756 28.78519636 6.0625 27.0625 C6.083125 26.21107422 6.10375 25.35964844 6.125 24.48242188 C6.16961345 17.16023948 4.87644824 10.93965041 0.75 4.8125 C-7.14725 -0.39632447 -14.04841866 2.83903827 -19.375 9.6875 Z " fill="#EFEFEF" transform="translate(260.1875,175.125)"/>
<path d="M0 0 C0.99 0.33 1.98 0.66 3 1 C3.94921875 3.94140625 3.94921875 3.94140625 4.6875 7.5625 C4.93886719 8.76003906 5.19023437 9.95757812 5.44921875 11.19140625 C5.63097656 12.11824219 5.81273437 13.04507813 6 14 C7.2375 14.04125 8.475 14.0825 9.75 14.125 C10.44609375 14.14820313 11.1421875 14.17140625 11.859375 14.1953125 C14.30155975 13.97248542 15.88636771 13.20915 18 12 C17.34674175 22.33950121 17.34674175 22.33950121 14 26 C1.50018296 34.44499834 -18.96933825 33.9023766 -33.515625 35.36254883 C-36.78719534 35.69123694 -40.05767692 36.02948346 -43.328125 36.36914062 C-45.42181887 36.58388128 -47.51556699 36.79809383 -49.609375 37.01171875 C-50.58018005 37.11167648 -51.55098511 37.21163422 -52.5512085 37.31462097 C-53.45695618 37.40504166 -54.36270386 37.49546234 -55.29589844 37.58862305 C-56.48140289 37.70828682 -56.48140289 37.70828682 -57.69085693 37.83036804 C-60.13516022 38.009929 -62.5499938 38.02855505 -65 38 C-64.5143879 32.46402207 -63.79807238 27.92074798 -61 23 C-58 21.25 -58 21.25 -55 20 C-53.18445841 18.43897509 -53.18445841 18.43897509 -52 17 C-51.01 17.66 -50.02 18.32 -49 19 C-45.9858967 19.34030199 -43.90436366 19.56836862 -41 19 C-38.12448478 16.79135579 -38.12448478 16.79135579 -36 14 C-35 13 -34 12 -33 11 C-32.34 12.98 -31.68 14.96 -31 17 C-24.34454208 17.54330269 -20.54165256 16.77304004 -15 13 C-14.505 16.96 -14.505 16.96 -14 21 C-12.68 21.33 -11.36 21.66 -10 22 C-9.61328125 20.99839844 -9.2265625 19.99679687 -8.828125 18.96484375 C-8.30236753 17.6222845 -7.77630973 16.27984284 -7.25 14.9375 C-6.87101562 13.95233398 -6.87101562 13.95233398 -6.484375 12.94726562 C-4.68047873 8.36987884 -2.52621183 4.22316717 0 0 Z " fill="#282525" transform="translate(408,241)"/>
<path d="M0 0 C1.35364403 0.01253059 1.35364403 0.01253059 2.7346344 0.02531433 C3.42347214 0.03605484 4.11230988 0.04679535 4.82202148 0.05786133 C4.92102964 5.9477042 4.99355629 11.83706078 5.04174805 17.72753906 C5.0618414 19.73055461 5.08912114 21.73351165 5.1237793 23.73632812 C5.1723976 26.61839241 5.195013 29.49967999 5.21264648 32.38208008 C5.23329163 33.27497238 5.25393677 34.16786469 5.27520752 35.08781433 C5.27669203 39.21765555 5.19449248 41.45366031 2.98510742 45.03759766 C0.82202148 47.05786133 0.82202148 47.05786133 -2.17797852 49.05786133 C-5.13874143 48.69898098 -6.02455872 48.21128112 -8.17797852 46.05786133 C-8.42040883 41.20925509 -8.1329627 36.83278223 -7.17797852 32.05786133 C-8.82797852 32.05786133 -10.47797852 32.05786133 -12.17797852 32.05786133 C-12.50797852 32.71786133 -12.83797852 33.37786133 -13.17797852 34.05786133 C-13.83797852 33.72786133 -14.49797852 33.39786133 -15.17797852 33.05786133 C-20.34468103 32.45001397 -23.52669993 33.10104902 -27.55688477 36.23364258 C-30.21301803 39.22259255 -31.42535236 42.77949973 -32.91235352 46.45239258 C-34.70342369 50.13956481 -36.81765495 51.7915966 -40.17797852 54.05786133 C-35.28304556 34.66460313 -25.42370763 11.87661589 -8.02563477 0.98364258 C-5.10477348 0.03406216 -3.04856839 -0.03658097 0 0 Z " fill="#262223" transform="translate(388.177978515625,206.942138671875)"/>
<path d="M0 0 C0.66 0.33 1.32 0.66 2 1 C2.42697768 3.50830258 2.73131601 5.94069476 2.96875 8.46875 C3.13351255 10.03015002 3.30023798 11.59134394 3.46875 13.15234375 C3.55447266 13.95720215 3.64019531 14.76206055 3.72851562 15.59130859 C4.15016742 19.33233073 4.6763794 23.05607561 5.21875 26.78125 C5.37573364 27.85959106 5.37573364 27.85959106 5.53588867 28.9597168 C5.74861895 30.41145064 5.96240166 31.86303066 6.17724609 33.31445312 C6.50394892 35.52674035 6.82439751 37.73987869 7.14453125 39.953125 C8.39825726 48.60013701 8.39825726 48.60013701 10.15625 57.15625 C11 61 11 61 11 67 C3.74 67 -3.52 67 -11 67 C-9.87537454 56.87837088 -9.87537454 56.87837088 -8.9140625 51.99609375 C-8.70692627 50.93374512 -8.49979004 49.87139648 -8.28637695 48.77685547 C-7.95899536 47.12387451 -7.95899536 47.12387451 -7.625 45.4375 C-7.17306459 43.11590731 -6.72124132 40.79429279 -6.26953125 38.47265625 C-5.68343992 35.47991387 -5.0962643 32.48740334 -4.50537109 29.49560547 C-2.57446765 19.70113604 -1.12086892 9.91639325 0 0 Z " fill="#292626" transform="translate(159,178)"/>
<path d="M0 0 C7.26 0 14.52 0 22 0 C21.37231426 5.02148593 20.72661507 9.66790681 19.66015625 14.5625 C19.40274658 15.76390625 19.14533691 16.9653125 18.88012695 18.203125 C18.61031006 19.45609375 18.34049316 20.7090625 18.0625 22 C16.10786291 31.18250866 14.4177466 40.25951682 13.43359375 49.59375 C12.72496108 55.16066608 11.394693 60.56999524 10 66 C9.67 66 9.34 66 9 66 C8.86948242 64.96931396 8.73896484 63.93862793 8.60449219 62.87670898 C7.99284265 58.06279474 7.37332026 53.24991628 6.75 48.4375 C6.63806305 47.57319366 6.5261261 46.70888733 6.41079712 45.81838989 C4.92285204 34.38951844 3.3079363 23.01955648 1.16894531 11.69116211 C1.01393555 10.86366455 0.85892578 10.03616699 0.69921875 9.18359375 C0.56346436 8.48806396 0.42770996 7.79253418 0.2878418 7.07592773 C0 5 0 5 0 0 Z " fill="#272324" transform="translate(313,283)"/>
<path d="M0 0 C0.2475 0.515625 0.495 1.03125 0.75 1.5625 C3.44200021 7.67047484 3.44200021 7.67047484 8 12 C13.85978608 12.65256622 13.85978608 12.65256622 18.8125 9.875 C20.98139586 7.02445116 22.55453758 4.27130969 24 1 C24.66 1.99 25.32 2.98 26 4 C26.47179687 4.48855469 26.94359375 4.97710937 27.4296875 5.48046875 C29.68255954 8.14129329 31.1161269 10.31508865 30.86767578 13.91992188 C30.04112047 18.75277413 28.72308757 23.41410235 27 28 C24.39048764 29.30475618 22.47298715 29.11301572 19.5546875 29.09765625 C17.94013672 29.09282227 17.94013672 29.09282227 16.29296875 29.08789062 C15.16503906 29.07951172 14.03710938 29.07113281 12.875 29.0625 C11.73933594 29.05798828 10.60367187 29.05347656 9.43359375 29.04882812 C6.62234362 29.03701615 3.8111977 29.02054507 1 29 C-0.06542479 25.59028343 -1.0981021 22.17149826 -2.125 18.75 C-2.57939453 17.29787109 -2.57939453 17.29787109 -3.04296875 15.81640625 C-3.32011719 14.88183594 -3.59726562 13.94726562 -3.8828125 12.984375 C-4.27557373 11.69611816 -4.27557373 11.69611816 -4.67626953 10.38183594 C-5.18819229 6.61538162 -3.5191392 4.71880812 -1.375 1.75 C-0.694375 0.88375 -0.694375 0.88375 0 0 Z " fill="#282425" transform="translate(310,251)"/>
<path d="M0 0 C0.99 0 1.98 0 3 0 C4.66666667 0 6.33333333 0 8 0 C7.97679687 0.98742187 7.95359375 1.97484375 7.9296875 2.9921875 C7.91164063 4.27351562 7.89359375 5.55484375 7.875 6.875 C7.85179687 8.15117187 7.82859375 9.42734375 7.8046875 10.7421875 C7.64358476 14.08593338 7.64358476 14.08593338 10 16 C12.39639901 15.66946221 14.38055243 14.84596688 16.625 13.9375 C19 13 19 13 21 13 C21 16.3 21 19.6 21 23 C20.67 23 20.34 23 20 23 C19.505 19.535 19.505 19.535 19 16 C18.195625 16.66 17.39125 17.32 16.5625 18 C12.56561966 20.72209596 8.66728396 20.37338272 4 20 C3.01 18.02 2.02 16.04 1 14 C0.66226562 14.49371094 0.32453125 14.98742187 -0.0234375 15.49609375 C-0.46945312 16.13675781 -0.91546875 16.77742188 -1.375 17.4375 C-1.81585938 18.07558594 -2.25671875 18.71367187 -2.7109375 19.37109375 C-4 21 -4 21 -6 22 C-14.39097744 22.40601504 -14.39097744 22.40601504 -18 20 C-19.175625 21.2375 -19.175625 21.2375 -20.375 22.5 C-23 25 -23 25 -25 25 C-24.05874832 22.17624497 -23.36263408 20.32637067 -21.125 18.3125 C-18.8600312 15.84768101 -18.30604031 14.25106622 -17.25 11.125 C-14.22824898 3.11439729 -8.70964929 -1.02466462 0 0 Z " fill="#F1F1F1" transform="translate(373,239)"/>
<path d="M0 0 C10.52626939 4.81531079 17.05472411 20.31412069 20.98046875 30.55859375 C21.86009542 33.46402728 22.36174227 35.29779441 20.9375 38.0625 C18.32181326 39.32815487 16.76451268 38.64913845 14 38 C13.92652344 36.86111328 13.92652344 36.86111328 13.8515625 35.69921875 C13.77679688 34.70535156 13.70203125 33.71148437 13.625 32.6875 C13.55539062 31.70136719 13.48578125 30.71523437 13.4140625 29.69921875 C13.16134528 26.78471567 13.16134528 26.78471567 11 24 C7.30874099 23.42580415 5.52455255 23.68282869 2.3125 25.625 C-0.22009132 28.22603974 -1.56722316 30.68199047 -3 34 C-3.33 34 -3.66 34 -4 34 C-4.31272716 26.24480076 -3.37074417 18.99744899 -2 11.375 C-1.80921875 10.27542969 -1.6184375 9.17585937 -1.421875 8.04296875 C-0.95537214 5.36057731 -0.48129606 2.67976943 0 0 Z " fill="#2B2728" transform="translate(403,214)"/>
<path d="M0 0 C0.66 0 1.32 0 2 0 C8.41120785 10.74518436 2.6125193 29.61760403 0 41 C-1.38845166 46.10328247 -3.09769109 51.06491172 -5 56 C-5.33 56 -5.66 56 -6 56 C-6.29879898 46.23923335 -5.8282063 36.55277654 -5.1875 26.8125 C-5.11740723 25.6378418 -5.04731445 24.46318359 -4.97509766 23.25292969 C-3.5945468 3.5945468 -3.5945468 3.5945468 0 0 Z " fill="#302C2D" transform="translate(345,180)"/>
<path d="M0 0 C0.66 0 1.32 0 2 0 C8.55607751 13.11215503 1.63529601 36.43230916 -2.6875 49.4375 C-3.44238112 51.63124738 -4.21633936 53.81628162 -5 56 C-5.33 56 -5.66 56 -6 56 C-6.29879898 46.23923335 -5.8282063 36.55277654 -5.1875 26.8125 C-5.11740723 25.6378418 -5.04731445 24.46318359 -4.97509766 23.25292969 C-3.5945468 3.5945468 -3.5945468 3.5945468 0 0 Z " fill="#2B2829" transform="translate(321,180)"/>
<path d="M0 0 C0.33 0 0.66 0 1 0 C1.22343544 11.10970671 0.9946416 22.10575772 0.125 33.1875 C0.04652832 34.22511475 -0.03194336 35.26272949 -0.11279297 36.33178711 C-0.62190551 42.3829952 -1.54281627 48.10391626 -3 54 C-3.99 54 -4.98 54 -6 54 C-9.86105832 36.56296243 -4.70154239 16.87304807 0 0 Z " fill="#322E2F" transform="translate(286,298)"/>
<path d="M0 0 C0.66 0.33 1.32 0.66 2 1 C3.06785151 4.20355454 3.16708871 6.56963771 3.1875 9.9375 C3.20167969 10.97777344 3.21585938 12.01804688 3.23046875 13.08984375 C2.66018353 22.76536085 0.38398079 32.28910209 -1.625 41.75 C-1.85445312 42.84054688 -2.08390625 43.93109375 -2.3203125 45.0546875 C-2.87797914 47.70360405 -3.43789881 50.3520216 -4 53 C-4.33 53 -4.66 53 -5 53 C-5.19326967 40.9578128 -5.3377823 28.93824084 -4.1875 16.9375 C-4.08236084 15.75462402 -4.08236084 15.75462402 -3.97509766 14.54785156 C-3.40864881 9.29039221 -2.02422867 4.88587796 0 0 Z " fill="#332F30" transform="translate(201,175)"/>
<path d="M0 0 C0.66 0.66 1.32 1.32 2 2 C1.79383214 7.36036441 0.55401887 10.9523674 -3 15 C-5.375 15.75 -5.375 15.75 -8 15 C-10.37724743 13.28309908 -12.46583264 11.51465026 -14 9 C-13.8984375 6.96875 -13.8984375 6.96875 -13 5 C-9.35869592 1.76706647 -4.98937503 -1.02722427 0 0 Z " fill="#2A2627" transform="translate(237,270)"/>
<path d="M0 0 C3.80568914 0.99672811 6.56862491 3.31690023 8.625 6.6875 C8.5546875 8.71484375 8.5546875 8.71484375 7.625 10.6875 C5.734375 12.20703125 5.734375 12.20703125 3.375 13.5 C2.60671875 13.93957031 1.8384375 14.37914062 1.046875 14.83203125 C-1.84338261 15.85294482 -3.46909294 15.52732775 -6.375 14.6875 C-6.73522892 10.09458123 -6.95369016 6.73771547 -4.6875 2.625 C-2.375 0.6875 -2.375 0.6875 0 0 Z " fill="#272324" transform="translate(234.375,242.3125)"/>
<path d="M0 0 C1.051875 0.12375 2.10375 0.2475 3.1875 0.375 C2.85480364 5.69814179 -0.19042594 9.66627345 -3.8125 13.375 C-6.6875 14.375 -6.6875 14.375 -8.8125 14.375 C-9.48214286 6.60714286 -9.48214286 6.60714286 -6.75 2.875 C-3.8125 0.375 -3.8125 0.375 0 0 Z " fill="#292526" transform="translate(370.8125,242.625)"/>
<path d="M0 0 C0.28730852 4.88424492 0.32472595 8.21669117 -3 12 C-5.5 12.5625 -5.5 12.5625 -8 12 C-10.40311451 9.76261752 -10.96341425 8.53659096 -11.1875 5.25 C-11.125625 4.5075 -11.06375 3.765 -11 3 C-9.54293274 2.49632243 -8.08429904 1.99717444 -6.625 1.5 C-5.81289063 1.2215625 -5.00078125 0.943125 -4.1640625 0.65625 C-2 0 -2 0 0 0 Z " fill="#2A2627" transform="translate(285,276)"/>
<path d="M0 0 C2.5 0.4375 2.5 0.4375 4.3125 2.125 C5.5 4.4375 5.5 4.4375 5.5 9.4375 C0.055 10.9225 0.055 10.9225 -5.5 12.4375 C-5.87033084 3.91989061 -5.87033084 3.91989061 -4.14453125 1.671875 C-2.5 0.4375 -2.5 0.4375 0 0 Z " fill="#2C2829" transform="translate(203.5,239.5625)"/>
<path d="M0 0 C0.66 0 1.32 0 2 0 C2.32748137 11.15255987 1.32040894 21.94157511 0 33 C-0.66 32.67 -1.32 32.34 -2 32 C-2.10316419 24.02196904 -2.03995232 16.0903905 -1.5625 8.125 C-1.52326416 7.42955078 -1.48402832 6.73410156 -1.44360352 6.01757812 C-1.12394681 1.12394681 -1.12394681 1.12394681 0 0 Z " fill="#343132" transform="translate(402,174)"/>
<path d="M0 0 C0.66 0.99 1.32 1.98 2 3 C-2.11378556 10.5273523 -2.11378556 10.5273523 -5.8125 12.5 C-6.534375 12.665 -7.25625 12.83 -8 13 C-6.50918351 8.39202176 -4.12406101 5.60468578 -1 2 C-0.67 1.34 -0.34 0.68 0 0 Z " fill="#E4E3E3" transform="translate(332,251)"/>
<path d="M0 0 C0.66 0.33 1.32 0.66 2 1 C-0.4907258 4.82504319 -2.97303779 8.56944283 -6 12 C-6.66 12 -7.32 12 -8 12 C-7.41463247 8.33939179 -5.916761 6.45464836 -3.4375 3.75 C-2.79683594 3.04359375 -2.15617188 2.3371875 -1.49609375 1.609375 C-0.75552734 0.81273437 -0.75552734 0.81273437 0 0 Z " fill="#E1E0E0" transform="translate(196,268)"/>
<path d="M0 0 C3.3 0 6.6 0 10 0 C10.33 0.99 10.66 1.98 11 3 C7.7 3 4.4 3 1 3 C0.67 2.01 0.34 1.02 0 0 Z " fill="#DAD9D9" transform="translate(295,281)"/>
<path d="M0 0 C1.32 0 2.64 0 4 0 C4 3.3 4 6.6 4 10 C3.67 10 3.34 10 3 10 C2.67 7.69 2.34 5.38 2 3 C-0.475 4.485 -0.475 4.485 -3 6 C-1.125 1.125 -1.125 1.125 0 0 Z " fill="#CAC9C9" transform="translate(390,252)"/>
<path d="M0 0 C0.99 0 1.98 0 3 0 C2.67 1.65 2.34 3.3 2 5 C1.01 5 0.02 5 -1 5 C-0.67 3.35 -0.34 1.7 0 0 Z " fill="#EFEFEF" transform="translate(253,295)"/>
</svg>
